<?xml version="1.0" standalone="no"?>
<!DOCTYPE svg PUBLIC "-//W3C//DTD SVG 20010904//EN"
 "http://www.w3.org/TR/2001/REC-SVG-20010904/DTD/svg10.dtd">
<svg version="1.0" xmlns="http://www.w3.org/2000/svg"
 width="595.000000pt" height="593.000000pt" viewBox="0 0 595.000000 593.000000"
 preserveAspectRatio="xMidYMid meet">

<g transform="translate(0.000000,593.000000) scale(0.100000,-0.100000)"
fill="#000000" stroke="none">
<path d="M2736 5691 c-3 -5 -33 -7 -66 -5 -33 2 -60 -1 -60 -6 0 -5 -13 -7
-30 -4 -18 4 -36 1 -45 -6 -9 -7 -29 -10 -48 -7 -18 3 -50 -1 -72 -9 -22 -7
-48 -14 -58 -14 -10 0 -20 -7 -23 -15 -4 -10 -13 -13 -25 -10 -15 5 -80 -14
-171 -50 -12 -5 -18 -18 -18 -36 0 -26 -4 -29 -39 -35 -22 -3 -52 -15 -68 -25
-63 -42 -129 -89 -153 -109 -14 -12 -30 -24 -36 -28 -6 -4 -23 -24 -37 -45
-14 -21 -38 -48 -52 -59 -19 -15 -24 -25 -19 -41 6 -19 5 -20 -8 -9 -13 10
-20 7 -44 -21 -16 -19 -37 -47 -47 -63 -9 -16 -33 -51 -52 -79 -37 -53 -45
-81 -20 -71 42 17 48 17 25 0 -14 -10 -32 -19 -40 -19 -9 0 -17 -15 -21 -40
-4 -22 -16 -65 -28 -95 -11 -30 -20 -68 -20 -85 1 -16 -4 -50 -11 -75 -6 -25
-11 -52 -10 -60 0 -8 0 -91 0 -185 -1 -163 9 -306 30 -427 6 -32 15 -85 20
-118 12 -65 48 -181 86 -272 31 -74 31 -82 -3 -65 -56 29 -69 29 -96 1 -22
-21 -27 -36 -27 -73 0 -26 4 -51 9 -57 5 -5 14 -45 20 -88 11 -80 29 -123 182
-443 51 -107 95 -167 129 -176 15 -4 11 6 -20 40 -45 52 -94 137 -139 244 -28
66 -32 88 -38 207 -4 86 -11 138 -19 146 -28 28 -74 115 -74 139 0 35 18 44
29 14 5 -14 38 -46 73 -73 35 -26 66 -53 71 -59 4 -6 10 -5 16 4 5 7 13 11 19
7 6 -4 8 2 5 14 -7 26 -23 36 -23 15 0 -9 -4 -13 -10 -10 -5 3 -10 13 -10 22
0 9 -8 35 -18 57 -19 41 -39 123 -49 204 -3 23 -9 42 -14 42 -5 0 -8 17 -7 38
0 22 -1 43 -4 48 -9 15 18 186 36 228 14 33 15 59 2 45 -12 -14 -57 -125 -60
-150 -1 -16 -6 -32 -11 -37 -4 -4 -4 16 0 43 5 28 8 64 7 82 -1 18 3 35 8 38
7 4 9 -3 5 -22 -5 -21 -4 -24 4 -13 20 32 50 120 41 120 -7 0 -7 7 0 21 6 11
12 33 12 50 1 16 4 29 7 29 4 0 13 33 20 72 7 40 16 79 19 88 2 8 -10 -4 -28
-27 -17 -24 -36 -55 -41 -70 -8 -24 -8 -23 -3 7 4 19 6 49 5 67 0 17 13 64 30
105 59 141 32 107 -40 -51 l-20 -45 2 45 c2 24 11 56 21 71 9 14 16 35 14 44
-2 11 3 19 11 19 8 0 16 7 18 15 4 12 3 12 -5 1 -7 -9 -12 -10 -16 -2 -4 6 5
28 19 48 14 21 25 43 25 51 0 7 11 17 24 22 16 6 27 20 31 40 4 18 15 40 26
51 37 37 0 27 -40 -11 -53 -50 -72 -52 -32 -3 30 36 42 71 21 58 -22 -13 14
45 37 60 31 21 29 10 -4 -21 -14 -13 -23 -27 -19 -31 4 -4 19 5 33 20 23 23
25 29 15 52 -13 29 -11 30 47 9 24 -8 46 -13 48 -10 3 3 -13 10 -36 16 -23 6
-41 15 -41 20 0 15 114 12 129 -2 11 -11 12 -10 7 2 -3 8 -9 23 -12 32 -5 13
-13 16 -33 12 -14 -4 -28 -7 -31 -6 -52 1 -70 4 -70 13 0 6 25 10 68 9 37 -1
71 -2 76 -1 16 2 -17 32 -58 51 -47 22 -32 27 18 6 18 -8 46 -30 61 -50 30
-40 46 -46 38 -16 -10 37 12 20 35 -27 21 -43 21 -45 3 -29 -19 18 -41 15 -41
-5 0 -6 4 -8 9 -5 5 3 12 -1 15 -10 3 -8 2 -12 -3 -9 -5 3 -12 1 -15 -4 -5 -8
39 -64 106 -133 31 -33 54 -38 38 -9 -16 30 -12 36 10 16 27 -25 25 -10 -10
59 -28 55 -29 58 -8 40 55 -45 88 -79 88 -89 0 -22 46 -55 77 -55 27 0 32 4
35 27 4 36 26 41 34 7 6 -25 8 -26 14 -9 7 19 7 19 14 -2 6 -18 11 -21 30 -13
15 5 27 5 35 -3 17 -17 51 -18 57 -2 5 12 22 14 90 10 95 -6 115 2 169 62 23
26 35 32 53 27 14 -4 21 -12 18 -20 -7 -19 9 -18 25 2 24 29 69 47 85 33 11
-9 18 -8 34 6 10 9 23 14 29 11 5 -3 24 22 41 56 17 35 29 55 26 46 -3 -9 -8
-34 -11 -55 -6 -34 -5 -36 8 -20 8 9 17 17 20 17 18 0 117 86 130 112 9 18 17
26 21 19 10 -15 26 -14 26 2 0 6 9 23 20 37 17 22 20 23 20 6 0 -15 7 -11 36
20 19 21 28 28 20 14 -25 -38 -19 -44 19 -20 l35 22 20 -24 c11 -12 19 -17 20
-10 0 6 -4 12 -10 12 -14 0 -13 37 2 46 7 4 8 3 4 -4 -4 -6 0 -22 9 -35 8 -13
12 -27 8 -32 -5 -4 1 -5 13 -1 14 4 27 -1 42 -19 12 -14 26 -25 30 -25 5 0 17
-17 28 -37 10 -21 22 -40 25 -43 3 -3 19 -31 34 -62 15 -32 39 -65 53 -75 58
-42 72 -55 72 -64 0 -6 -20 6 -45 27 -36 29 -45 33 -45 19 0 -10 10 -28 23
-40 12 -12 34 -37 50 -56 24 -29 26 -35 12 -45 -21 -15 -19 -24 5 -24 11 0 20
-4 20 -10 0 -5 7 -10 15 -10 8 0 15 -4 15 -9 0 -4 -11 -7 -24 -6 -18 2 -23 -1
-19 -11 3 -8 8 -14 12 -14 3 0 14 -17 24 -39 10 -21 39 -60 64 -86 35 -38 47
-45 54 -34 5 9 9 10 9 2 0 -6 -5 -15 -11 -18 -6 -5 -4 -11 7 -19 9 -7 14 -18
10 -24 -4 -6 0 -33 8 -59 8 -26 22 -88 31 -138 9 -49 21 -95 26 -102 6 -7 8
-17 4 -23 -3 -5 0 -10 7 -10 10 0 9 -3 -2 -10 -12 -8 -12 -10 3 -16 9 -3 17
-14 18 -23 1 -9 5 2 10 24 6 22 8 48 5 58 -2 9 0 17 5 17 5 0 9 -3 9 -7 0 -5
2 -73 4 -153 1 -80 8 -173 14 -207 21 -110 31 -176 38 -245 3 -38 11 -68 16
-68 6 0 8 14 3 37 -8 43 -25 197 -25 231 0 14 4 21 11 17 12 -8 49 22 49 41 0
7 -8 10 -20 7 -18 -5 -20 -2 -14 43 3 27 20 79 38 117 18 37 29 67 25 67 -24
0 -79 -137 -80 -199 -2 -62 -15 -76 -25 -25 -18 97 18 264 60 280 8 3 24 28
37 55 23 47 26 50 59 47 29 -2 34 -7 32 -23 -8 -56 2 -231 16 -266 17 -43 35
-227 30 -301 -4 -51 -14 -85 -38 -133 -27 -53 -31 -69 -23 -88 11 -21 11 -21
18 -2 22 58 46 107 50 103 3 -3 -2 -34 -11 -69 -25 -102 -26 -118 -5 -72 26
56 38 130 46 286 5 88 3 127 -4 127 -7 0 -11 21 -11 52 0 28 3 49 6 45 4 -3 6
-24 6 -47 0 -22 3 -40 9 -40 14 0 11 134 -6 209 -8 36 -21 100 -30 141 -18 87
-43 120 -90 120 -46 0 -81 -32 -121 -112 -37 -74 -56 -89 -27 -22 33 77 18
316 -34 549 -13 61 -26 123 -29 139 -2 16 -8 34 -12 40 -5 6 -14 38 -22 71 -7
33 -30 110 -52 170 -22 61 -42 119 -45 130 -3 11 -17 35 -31 54 -14 18 -25 43
-26 55 -1 15 -7 20 -21 18 -16 -2 -17 -1 -6 7 11 7 8 15 -20 40 -18 17 -42 34
-51 37 -10 3 -25 18 -33 34 -23 45 -104 115 -173 151 -53 27 -67 31 -83 21
-16 -11 -19 -9 -19 8 0 23 -61 55 -86 46 -9 -3 -14 2 -14 14 0 21 -56 45 -82
35 -9 -4 -18 0 -21 9 -8 20 -132 58 -182 55 -22 -1 -48 2 -58 6 -10 4 -37 5
-60 3 -28 -3 -47 0 -55 8 -16 17 -52 18 -52 2 0 -9 -3 -9 -12 0 -14 14 -64 16
-72 3z m542 -478 c0 -28 -37 -103 -50 -103 -3 0 3 26 14 58 29 82 35 90 36 45z
m142 -20 c-24 -27 -46 -50 -48 -53 -3 -3 0 4 6 15 13 25 68 85 78 85 3 0 -13
-21 -36 -47z m-483 0 c-3 -10 -5 -4 -5 12 0 17 2 24 5 18 2 -7 2 -21 0 -30z
m378 18 c3 -5 1 -12 -5 -16 -5 -3 -10 1 -10 9 0 18 6 21 15 7z m-1156 -60 c-1
-13 -2 -13 -6 2 -2 9 -9 17 -14 17 -5 0 -9 5 -9 11 0 8 5 8 15 -1 8 -7 14 -20
14 -29z m1374 32 c-7 -2 -19 -2 -25 0 -7 3 -2 5 12 5 14 0 19 -2 13 -5z
m-1373 -183 c5 -36 13 -81 16 -100 3 -19 3 -32 0 -29 -6 6 -46 226 -45 244 1
19 19 -51 29 -115z m1005 84 c-8 -20 -15 -39 -15 -42 0 -3 -3 -3 -6 0 -6 7 22
78 31 78 3 0 -2 -16 -10 -36z m429 18 c3 -5 -8 -9 -24 -9 -16 0 -27 4 -24 9 3
4 14 8 24 8 10 0 21 -4 24 -8z m-1474 -34 c0 -6 -7 -5 -15 2 -8 7 -15 17 -15
22 0 6 7 5 15 -2 8 -7 15 -17 15 -22z m1120 -18 c-6 -11 -13 -20 -16 -20 -2 0
0 9 6 20 6 11 13 20 16 20 2 0 0 -9 -6 -20z m-1111 -72 c18 -104 19 -118 11
-113 -8 5 -29 98 -34 153 -6 61 11 32 23 -40z m928 30 c-3 -8 -6 -5 -6 6 -1
11 2 17 5 13 3 -3 4 -12 1 -19z m683 7 c7 -9 8 -15 2 -15 -5 0 -12 7 -16 15
-3 8 -4 15 -2 15 2 0 9 -7 16 -15z m-743 -17 c-3 -8 -6 -5 -6 6 -1 11 2 17 5
13 3 -3 4 -12 1 -19z m-780 -40 c-3 -8 -6 -5 -6 6 -1 11 2 17 5 13 3 -3 4 -12
1 -19z m-470 -4 c-3 -3 -12 -4 -19 -1 -8 3 -5 6 6 6 11 1 17 -2 13 -5z m502
-74 c0 -10 -3 -8 -9 5 -12 27 -12 43 0 25 5 -8 9 -22 9 -30z m1496 10 c26 -28
15 -31 -14 -3 -13 13 -20 23 -14 23 5 0 18 -9 28 -20z m-1527 -82 c18 -44 5
-33 -18 14 -11 24 -14 36 -7 28 7 -8 19 -27 25 -42z m30 -8 c0 -9 -3 -7 -8 5
-5 11 -8 29 -8 40 0 16 2 15 8 -5 4 -14 8 -32 8 -40z m1531 -77 c0 -13 -3 -11
-10 7 -6 14 -24 41 -42 60 -18 21 -14 18 11 -6 23 -24 42 -51 41 -61z m-1429
76 c0 -11 -4 -17 -10 -14 -5 3 -10 13 -10 21 0 8 5 14 10 14 6 0 10 -9 10 -21z
m1483 -101 c2 -9 9 -23 16 -31 10 -13 9 -15 -8 -10 -22 6 -22 5 -26 43 -2 14
-6 41 -9 60 l-6 35 15 -40 c9 -22 17 -47 18 -57z m-1376 40 c-3 -7 -5 -2 -5
12 0 14 2 19 5 13 2 -7 2 -19 0 -25z m-187 -13 c0 -5 -5 -3 -10 5 -5 8 -10 20
-10 25 0 6 5 3 10 -5 5 -8 10 -19 10 -25z m-592 -46 c-9 -5 -27 -26 -38 -47
-12 -21 -31 -44 -43 -52 -19 -11 -17 -7 7 26 42 57 79 95 85 88 3 -3 -2 -10
-11 -15z m2143 -36 c13 -16 12 -17 -3 -4 -10 7 -18 15 -18 17 0 8 8 3 21 -13z
m-2241 -33 c-6 -12 -14 -19 -17 -17 -2 3 1 15 7 27 6 12 14 19 17 17 2 -3 -1
-15 -7 -27z m2299 -74 c0 -6 -5 -1 -11 12 -6 12 -15 22 -20 22 -4 0 -8 6 -8
13 1 6 10 1 20 -12 11 -13 20 -28 19 -35z m-24 -9 c10 -17 20 -39 21 -47 0 -8
9 -30 18 -48 19 -36 8 -44 -14 -9 -15 24 -70 129 -70 134 0 2 6 3 13 3 6 0 21
-15 32 -33z m123 -42 c-3 -3 -13 7 -23 22 l-17 28 23 -22 c12 -12 20 -25 17
-28z m2 -49 c0 -12 -5 -7 -19 24 -11 24 -11 24 3 6 9 -11 16 -24 16 -30z m23
-133 c15 -43 31 -112 37 -153 12 -96 12 -96 1 -85 -5 6 -12 34 -16 63 -15 138
-29 178 -71 211 -15 12 -24 24 -21 28 4 3 13 0 22 -7 13 -11 14 -10 9 4 -3 9
-2 16 3 16 4 0 21 -35 36 -77z m63 -20 l3 -48 -8 47 c-5 26 -13 53 -17 60 -5
10 -4 10 6 1 7 -6 14 -33 16 -60z m14 -74 c0 -11 -4 -18 -10 -14 -5 3 -7 12
-3 20 7 21 13 19 13 -6z m-2489 -60 c-5 -13 -10 -19 -10 -12 -1 15 10 45 15
40 3 -2 0 -15 -5 -28z m2476 -1 c-3 -8 -6 -5 -6 6 -1 11 2 17 5 13 3 -3 4 -12
1 -19z m281 -358 c-1 -34 -37 98 -37 135 1 33 4 26 19 -40 11 -44 19 -87 18
-95z m-2831 -521 c3 -30 19 -83 34 -118 16 -35 27 -66 24 -69 -3 -3 -14 17
-26 44 -11 27 -27 63 -34 79 -18 42 -31 144 -16 129 6 -6 14 -35 18 -65z"/>
<path d="M1870 4875 c0 -2 15 -12 33 -20 l32 -16 -24 21 c-22 19 -41 26 -41
15z"/>
<path d="M1971 4803 c7 -12 15 -20 18 -17 3 2 -3 12 -13 22 -17 16 -18 16 -5
-5z"/>
<path d="M1674 4626 c-9 -15 -14 -29 -11 -32 3 -3 13 6 23 20 9 15 14 29 11
32 -3 3 -13 -6 -23 -20z"/>
<path d="M1652 4446 c-12 -24 -22 -51 -22 -60 0 -10 -5 -27 -11 -39 -6 -12 -7
-18 -1 -12 13 13 65 145 60 151 -3 2 -14 -16 -26 -40z"/>
<path d="M3543 3996 c-32 -6 -53 -15 -53 -23 0 -7 -10 -13 -23 -13 -13 0 -27
-3 -31 -7 -3 -4 -13 -8 -20 -9 -7 -1 -37 -18 -67 -37 -30 -19 -70 -41 -91 -48
-54 -18 -200 -120 -217 -151 -13 -23 -13 -32 -2 -63 11 -32 10 -41 -9 -83 -24
-51 -31 -153 -12 -160 7 -2 12 -9 12 -15 0 -22 16 -37 47 -46 30 -9 31 -8 35
24 2 19 0 31 -4 29 -16 -10 6 32 31 59 23 25 26 26 32 10 4 -10 2 -24 -4 -31
-13 -17 10 -34 35 -26 23 7 33 -15 13 -30 -15 -11 -15 -13 2 -28 21 -18 103
-31 103 -16 0 5 12 7 29 3 21 -4 30 -2 34 9 4 9 2 16 -3 16 -20 0 -9 21 14 30
14 5 33 21 42 36 17 25 18 25 31 8 12 -16 13 -16 13 -1 0 9 7 17 15 17 9 0 35
9 57 20 44 21 88 26 88 11 0 -14 38 -1 44 15 3 8 11 14 18 14 8 0 19 12 26 28
7 15 21 43 31 62 11 19 17 38 14 43 -2 4 0 7 6 7 18 0 23 58 8 89 -16 31 -13
42 18 59 11 6 14 12 7 12 -8 0 -10 8 -6 25 4 16 2 25 -6 25 -6 0 -9 4 -6 9 3
5 -5 20 -19 35 -13 14 -20 26 -15 26 20 0 -3 27 -46 54 -35 22 -50 27 -63 19
-9 -6 -25 -7 -36 -4 -11 4 -44 2 -72 -3z m87 -156 c0 -5 15 -10 34 -10 20 0
36 -6 39 -14 3 -8 21 -16 39 -19 l33 -4 -37 -1 c-36 -2 -43 -9 -39 -40 2 -9
-6 -11 -25 -6 -17 4 -25 3 -21 -3 4 -6 -31 -12 -96 -16 -93 -5 -128 -13 -287
-63 -8 -2 -21 0 -28 5 -23 14 3 41 92 97 79 50 140 72 151 55 3 -6 20 -5 41 1
20 5 38 7 41 4 3 -3 15 1 27 9 24 17 36 19 36 5z m40 -149 c20 -8 9 -9 -50 -5
-41 3 -96 1 -123 -4 -26 -5 -50 -6 -52 -1 -3 4 11 11 32 14 21 4 43 8 48 9 22
7 122 -2 145 -13z m-240 -15 c0 -7 -84 -46 -88 -41 -6 6 60 45 76 45 6 0 12
-2 12 -4z m189 -57 c39 -14 40 -38 2 -77 -42 -41 -93 -63 -173 -73 -38 -5 -73
-11 -78 -14 -4 -3 -29 -2 -54 1 -36 5 -46 11 -46 26 0 28 26 74 52 92 30 22
38 20 38 -7 0 -13 13 -35 28 -50 66 -63 172 -13 172 80 0 36 8 39 59 22z
m-219 -52 c0 -20 -1 -20 -16 -5 -9 9 -13 21 -9 27 10 16 25 3 25 -22z m110 18
c0 -21 -30 -31 -40 -14 -11 17 -3 29 21 29 10 0 19 -7 19 -15z m-270 -125 c0
-5 -9 -10 -20 -10 -11 0 -20 5 -20 10 0 6 9 10 20 10 11 0 20 -4 20 -10z m160
-39 c0 -5 -11 -8 -25 -7 -38 4 -43 16 -7 16 18 0 32 -4 32 -9z"/>
<path d="M1634 3815 c-3 -20 -4 -39 0 -42 3 -4 6 1 6 11 0 9 5 14 10 11 6 -3
10 5 10 19 0 39 -18 40 -26 1z"/>
<path d="M1627 3646 c-3 -8 3 -51 14 -93 24 -93 27 -105 28 -119 1 -5 8 -19
16 -30 13 -17 13 -16 4 16 -5 19 -14 54 -18 78 -8 39 -7 43 15 48 18 5 24 13
24 35 0 16 -4 29 -9 29 -4 0 -6 11 -3 25 4 25 -12 35 -21 13 -4 -10 -8 -9 -17
2 -8 12 -9 9 -5 -15 l5 -30 -13 29 c-11 22 -15 25 -20 12z m44 -69 c-10 -9
-11 -8 -5 6 3 10 9 15 12 12 3 -3 0 -11 -7 -18z"/>
<path d="M2002 3634 c-13 -9 -26 -14 -29 -10 -3 3 -22 -7 -42 -22 -50 -38 -64
-52 -57 -59 3 -3 -4 -19 -15 -35 -24 -33 -19 -48 8 -27 16 12 15 11 -1 -8 -10
-13 -22 -20 -27 -18 -12 8 -5 -36 14 -77 9 -21 23 -38 31 -38 9 0 16 -7 16
-15 0 -8 5 -15 10 -15 6 0 10 -6 10 -12 0 -15 67 -88 80 -88 4 0 10 -10 14
-23 6 -27 72 -67 110 -67 30 0 32 7 10 38 l-16 23 69 -4 c38 -2 74 -7 81 -11
7 -4 12 -2 12 4 0 6 4 9 9 5 5 -3 12 -1 16 5 3 5 15 10 26 10 10 0 19 4 19 9
0 13 126 60 183 67 l47 7 -6 36 c-5 30 -4 34 7 24 7 -7 23 -13 36 -13 16 0 24
-7 29 -27 4 -16 11 -36 16 -46 14 -26 35 -5 43 42 8 49 -17 113 -64 166 -20
22 -47 57 -61 77 -17 26 -40 44 -75 57 -74 29 -251 64 -283 56 -45 -12 -162
-15 -162 -5 0 15 -33 12 -58 -6z m298 -128 c109 -20 87 -36 -89 -66 -35 -6
-87 -21 -115 -32 -73 -30 -103 -31 -102 -4 1 11 10 29 21 40 11 10 19 21 18
25 -1 4 6 7 15 8 22 2 99 20 137 32 38 12 37 12 115 -3z m70 -82 c-34 -7 -158
-9 -147 -2 7 4 46 7 87 7 41 -1 68 -3 60 -5z m-175 -14 c-3 -5 -12 -10 -19
-10 -7 0 -40 -13 -72 -30 -65 -33 -80 -33 -35 -1 48 35 140 64 126 41z m230
-40 c14 -5 32 -24 40 -42 8 -18 14 -25 15 -16 0 9 5 20 10 23 6 3 10 -4 10
-17 0 -28 -57 -56 -188 -94 -105 -31 -158 -27 -204 15 -37 33 -34 52 14 81 41
25 48 25 48 -1 0 -11 13 -34 29 -50 67 -67 171 -14 171 87 0 26 13 30 55 14z
m-185 -43 c0 -40 -8 -51 -27 -36 -16 14 -17 41 -1 57 20 20 28 14 28 -21z
m110 25 c0 -5 -7 -17 -15 -28 -13 -16 -16 -17 -25 -4 -17 25 -11 40 15 40 14
0 25 -4 25 -8z m194 -53 c-7 -11 -34 -12 -34 -1 0 14 11 21 26 15 8 -3 11 -9
8 -14z"/>
<path d="M4218 3628 c-12 -10 -17 -36 -20 -99 -3 -66 -10 -99 -30 -140 -30
-63 -42 -109 -29 -109 5 0 13 10 17 23 3 12 23 38 44 58 52 49 74 113 67 190
-6 70 -23 97 -49 77z"/>
<path d="M649 3583 c-31 -34 -65 -88 -50 -79 6 4 18 20 26 36 8 16 21 28 28
26 6 -1 8 -1 4 2 -5 2 -1 13 9 23 9 10 15 19 12 19 -2 0 -16 -12 -29 -27z"/>
<path d="M617 3496 c-4 -10 -5 -21 -2 -24 9 -9 17 6 13 25 -3 17 -4 17 -11 -1z"/>
<path d="M558 3460 c-28 -30 -29 -60 -2 -60 16 0 19 -16 4 -25 -5 -3 -10 -15
-10 -25 0 -10 -4 -22 -10 -25 -6 -3 -7 1 -4 9 3 9 2 16 -3 16 -5 0 -14 -15
-21 -32 -10 -27 -14 -30 -22 -18 -7 12 -10 8 -11 -15 0 -16 -3 -24 -6 -17 -6
15 -33 -30 -33 -54 0 -8 -4 -22 -9 -32 -17 -34 -59 -238 -56 -272 2 -19 0 -64
-5 -100 -5 -42 -2 -103 7 -175 8 -60 16 -121 17 -135 4 -40 17 -71 26 -65 4 3
6 -4 3 -15 -3 -11 -2 -28 2 -37 5 -10 9 -22 11 -28 1 -5 6 -21 11 -34 9 -22
10 -21 23 23 10 35 10 50 1 59 -6 6 -11 16 -11 22 0 5 5 3 10 -5 12 -19 13 -4
1 37 -7 25 -5 35 10 52 19 20 27 86 11 93 -5 2 -12 56 -16 121 -5 100 -4 117
9 117 11 0 15 11 15 39 0 22 -4 41 -10 43 -5 2 -13 56 -16 121 -6 105 -5 117
9 117 13 0 17 10 17 47 0 27 6 53 15 62 41 46 51 58 62 83 14 31 11 57 -7 68
-12 7 -11 12 4 29 10 11 16 24 15 30 -2 5 -16 -3 -31 -19z m-98 -306 c-6 -15
-8 -35 -5 -43 5 -12 3 -13 -6 -4 -8 8 -9 19 -1 43 6 17 9 38 6 48 -5 16 -5 16
5 0 8 -11 8 -25 1 -44z m-19 -61 c13 -16 12 -17 -3 -4 -10 7 -18 15 -18 17 0
8 8 3 21 -13z m-4 -460 c-3 -10 -5 -4 -5 12 0 17 2 24 5 18 2 -7 2 -21 0 -30z
m3 -43 c0 -5 -2 -10 -4 -10 -3 0 -8 5 -11 10 -3 6 -1 10 4 10 6 0 11 -4 11
-10z m-6 -86 c3 -8 2 -12 -4 -9 -6 3 -10 10 -10 16 0 14 7 11 14 -7z m11 -44
c-3 -5 -11 -10 -16 -10 -6 0 -7 5 -4 10 3 6 11 10 16 10 6 0 7 -4 4 -10z"/>
<path d="M520 3391 c0 -11 4 -23 10 -26 6 -4 7 1 3 11 -5 13 -3 15 8 9 12 -8
12 -6 0 8 -17 22 -21 21 -21 -2z"/>
<path d="M610 3401 c0 -6 5 -13 10 -16 6 -3 10 1 10 9 0 9 -4 16 -10 16 -5 0
-10 -4 -10 -9z"/>
<path d="M497 3345 c-4 -8 -3 -16 1 -19 4 -3 9 4 9 15 2 23 -3 25 -10 4z"/>
<path d="M4105 3320 c-4 -11 -11 -17 -17 -14 -7 5 -9 -1 -5 -15 4 -18 3 -20
-9 -10 -12 10 -14 2 -15 -47 -3 -157 -13 -322 -22 -394 -2 -14 -9 -36 -16 -49
-11 -19 -11 -25 0 -32 11 -6 10 -9 -4 -15 -14 -5 -17 -13 -12 -35 4 -19 3 -29
-5 -29 -8 0 -11 -15 -9 -44 2 -24 1 -42 -3 -39 -15 9 -7 -62 9 -82 15 -19 15
-19 9 13 -3 18 -1 32 4 32 11 0 13 -13 10 -85 -1 -27 -6 -53 -12 -56 -6 -4 -8
-18 -4 -34 4 -16 3 -24 -3 -21 -5 3 -11 -9 -14 -27 -3 -17 -8 -41 -10 -52 -3
-11 -6 -24 -6 -28 -1 -5 -5 -6 -10 -3 -5 3 -14 -1 -21 -9 -7 -8 -9 -15 -5 -15
5 0 -8 -16 -27 -36 -35 -35 -55 -74 -37 -74 16 0 10 -28 -7 -34 -13 -5 -15
-14 -9 -42 4 -24 3 -34 -4 -29 -6 3 -11 -1 -11 -9 0 -9 5 -16 11 -16 18 0 1
-48 -26 -78 -14 -15 -25 -29 -25 -33 0 -17 -83 -89 -112 -97 -22 -5 -47 -26
-77 -63 -45 -55 -67 -68 -65 -36 3 30 -13 19 -46 -34 -34 -51 -92 -99 -121
-99 -9 0 -22 -7 -29 -15 -9 -11 -32 -15 -89 -14 -42 0 -84 -2 -93 -6 -10 -4
-18 -3 -18 2 0 5 -25 11 -56 12 -31 1 -67 9 -79 17 -16 10 -25 12 -30 5 -8
-14 -44 -5 -112 26 -28 12 -58 23 -67 23 -8 0 -17 4 -20 9 -3 5 -18 12 -33 16
-39 9 -143 121 -143 154 0 16 -39 53 -50 46 -5 -3 -11 3 -15 14 -8 26 -120 95
-156 96 -11 0 -39 34 -49 59 -5 15 -17 26 -27 26 -22 0 -73 52 -73 74 0 8 -11
26 -24 39 -25 25 -75 126 -81 162 0 6 -7 24 -14 40 -7 17 -22 59 -32 95 -10
36 -24 67 -29 68 -6 2 -10 12 -10 22 0 9 -7 23 -16 31 -8 7 -13 21 -11 31 3
10 1 18 -3 18 -5 0 -12 10 -16 23 -3 12 -14 30 -23 41 -9 10 -15 20 -13 22 7
12 0 15 -13 4 -20 -17 -31 10 -15 40 8 15 8 25 1 34 -6 8 -9 20 -6 27 6 17
-11 46 -21 36 -4 -4 -3 -12 3 -18 8 -8 7 -16 -5 -29 -19 -23 -33 -11 -49 40
-8 26 -11 29 -12 13 -1 -16 -6 -21 -16 -17 -8 4 -13 10 -10 14 3 4 -2 13 -10
20 -8 7 -22 39 -32 73 -21 77 -29 59 -9 -20 12 -48 13 -55 1 -39 -17 22 -39
122 -31 141 3 8 -1 48 -9 90 -8 41 -16 100 -17 130 -1 30 -5 55 -9 55 -4 0
-10 8 -13 18 -3 9 -3 -12 0 -48 5 -66 18 -146 30 -187 5 -19 2 -23 -15 -23
-11 0 -21 -5 -21 -11 0 -5 -5 -7 -10 -4 -40 25 14 -143 56 -173 56 -40 68 -55
90 -118 12 -36 30 -74 38 -83 9 -10 16 -23 16 -30 0 -8 6 -11 15 -7 12 4 14 0
9 -19 -7 -29 3 -59 56 -165 20 -41 57 -124 81 -185 23 -60 53 -126 66 -145 24
-35 30 -70 14 -70 -5 0 -11 8 -13 18 -5 23 -18 -20 -58 -193 -18 -77 -46 -182
-61 -234 -16 -52 -29 -106 -29 -120 0 -24 -12 -33 -115 -85 -63 -32 -115 -62
-115 -66 0 -31 -307 -287 -401 -336 -78 -39 -183 -122 -258 -201 l-79 -84 38
-35 c161 -149 442 -333 685 -448 179 -85 374 -153 612 -213 l108 -27 519 -3
520 -4 123 26 c149 31 337 85 453 129 l85 33 6 54 6 54 1 -48 c2 -45 3 -48 25
-41 25 7 191 89 287 141 331 181 690 495 919 803 92 124 171 243 171 257 0 10
-21 13 -87 13 -49 -1 -128 6 -178 15 -49 9 -121 20 -160 25 -38 4 -103 17
-142 29 -61 17 -99 21 -232 21 -146 0 -163 2 -197 22 -27 16 -58 23 -118 26
-57 3 -96 11 -132 28 -57 27 -79 31 -50 9 20 -15 11 -21 -10 -7 -15 10 -39 57
-25 48 8 -5 8 0 -1 18 -6 14 -15 26 -20 26 -5 0 -6 4 -3 10 10 17 -42 106
-114 190 -2 3 -6 -1 -8 -7 -4 -10 -11 -9 -34 2 -28 15 -29 14 -29 -5 0 -12 -6
-33 -14 -49 -10 -18 -11 -32 -5 -42 8 -12 10 -12 8 1 -1 8 0 22 1 30 5 24 18
-104 23 -225 3 -60 2 -94 -2 -75 -7 36 -12 7 -26 -184 -3 -33 -11 -66 -19 -75
-7 -9 -17 -27 -21 -40 -6 -18 -9 -20 -16 -10 -6 10 -9 8 -9 -9 0 -12 -4 -21
-9 -20 -17 5 -73 -85 -79 -126 -2 -23 -9 -46 -14 -52 -4 -6 -6 -19 -2 -28 3
-9 4 -16 1 -16 -7 0 -108 47 -147 69 -19 10 -50 25 -69 32 -18 7 -50 26 -70
43 -21 17 -57 42 -80 56 -23 14 -63 40 -88 59 -25 19 -92 58 -147 87 -118 62
-117 69 0 18 46 -19 89 -32 95 -28 8 4 9 3 5 -4 -5 -8 20 -11 84 -11 87 1 90
2 96 25 4 14 20 32 37 41 26 13 29 17 15 27 -20 14 -33 56 -18 56 6 0 8 4 5
10 -3 5 6 12 20 16 13 3 23 9 21 13 -2 3 7 16 20 29 15 14 24 18 24 10 0 -9 3
-9 10 2 5 8 10 11 10 6 0 -5 10 0 23 11 12 11 37 30 56 43 l34 24 -6 -32 c-6
-27 -4 -32 13 -32 11 0 20 -7 20 -15 0 -8 7 -15 15 -15 8 0 15 7 15 16 0 8 4
12 10 9 16 -10 80 61 80 90 0 15 4 24 10 20 13 -8 13 -2 -2 30 -6 14 -17 25
-25 25 -7 0 -13 2 -13 5 0 7 20 56 45 110 82 174 147 438 170 690 3 39 8 88
10 110 2 22 7 103 11 180 4 77 8 147 10 155 1 8 3 21 3 28 1 7 15 12 36 12 20
0 49 7 65 15 33 17 73 86 68 116 -2 14 -11 8 -38 -30 -23 -33 -44 -51 -60 -53
-14 -2 -24 -9 -22 -16 1 -8 -5 -12 -15 -10 -16 3 -18 17 -21 103 -1 55 -5 107
-9 115 -10 22 -14 50 -14 93 0 41 -5 47 -14 17z m-2185 -575 c-7 -9 -15 -13
-17 -11 -7 7 7 26 19 26 6 0 6 -6 -2 -15z m47 -97 c-7 -25 10 -61 23 -53 6 3
7 -1 4 -10 -4 -8 -1 -22 6 -30 7 -8 10 -22 6 -30 -3 -8 -2 -15 3 -15 5 0 11
-14 15 -30 8 -43 8 -42 22 -75 10 -25 10 -31 -4 -41 -14 -11 -14 -14 1 -37 19
-29 58 -129 53 -134 -2 -2 -13 8 -23 24 -22 31 -66 143 -57 143 4 0 0 8 -7 18
-11 14 -11 15 1 5 18 -17 36 -17 22 0 -6 7 -16 33 -22 59 -7 26 -18 53 -26 59
-8 6 -14 17 -14 24 0 7 -9 33 -20 59 -16 35 -18 50 -10 66 14 27 34 26 27 -2z
m112 -343 c0 -5 -8 1 -19 14 -11 12 -17 28 -14 33 7 11 33 -28 33 -47z m1887
-92 c-10 -10 -19 5 -10 18 6 11 8 11 12 0 2 -7 1 -15 -2 -18z m-69 -205 c-3
-8 -6 -5 -6 6 -1 11 2 17 5 13 3 -3 4 -12 1 -19z m-1703 -34 c8 -3 12 -12 9
-20 -3 -8 -1 -14 5 -14 6 0 20 -17 33 -37 12 -21 54 -69 93 -107 44 -43 55
-57 29 -37 -51 39 -151 147 -176 190 -19 32 -18 35 7 25z m1646 -83 c0 -6 -4
-13 -10 -16 -5 -3 -10 1 -10 9 0 9 5 16 10 16 6 0 10 -4 10 -9z m37 -303 c-3
-7 -5 -2 -5 12 0 14 2 19 5 13 2 -7 2 -19 0 -25z m-53 -33 c-4 -8 -14 -15 -23
-15 -14 1 -13 3 3 15 25 19 27 19 20 0z m377 -182 c18 -148 8 -187 -73 -275
-42 -46 -105 -152 -143 -240 -16 -38 -35 -68 -42 -68 -23 0 -13 34 41 135 177
332 181 344 166 502 -13 143 -12 147 16 86 15 -31 29 -86 35 -140z m88 60 c20
-71 33 -193 20 -193 -4 0 -11 21 -14 48 -3 26 -13 80 -21 121 -15 79 -16 91
-9 91 2 0 13 -30 24 -67z m-1399 -9 c36 -19 56 -32 45 -28 -11 3 -35 11 -53
16 -19 5 -48 18 -65 29 -58 35 3 21 73 -17z m1635 -78 c59 -73 39 -64 -40 17
-41 42 -75 79 -75 83 0 12 81 -59 115 -100z m160 26 c-6 -7 -35 18 -35 31 0 5
9 2 20 -8 11 -10 18 -20 15 -23z m30 -22 c3 -6 -1 -7 -9 -4 -18 7 -21 14 -7
14 6 0 13 -4 16 -10z m-92 -137 c24 -32 49 -69 56 -83 l12 -25 -20 25 c-25 30
-27 32 -69 93 -46 66 -32 59 21 -10z m-153 -114 c0 -6 -4 -7 -10 -4 -5 3 -10
11 -10 16 0 6 5 7 10 4 6 -3 10 -11 10 -16z m-960 -7 c0 -4 -9 -13 -21 -20
-19 -12 -19 -11 -9 8 10 19 30 28 30 12z m144 -163 c37 -29 37 -91 1 -115 -31
-20 -97 -14 -126 12 -19 17 -26 69 -11 90 25 37 96 44 136 13z m640 -29 c20
-22 36 -44 36 -48 0 -20 -34 -52 -54 -52 -27 0 -35 15 -42 77 -9 75 8 81 60
23z m-157 -512 c-3 -8 -6 -5 -6 6 -1 11 2 17 5 13 3 -3 4 -12 1 -19z"/>
<path d="M576 3292 c-4 -12 -13 -22 -21 -22 -7 0 -15 -7 -19 -15 -8 -22 21
-19 45 4 16 15 19 24 11 37 -9 16 -10 15 -16 -4z"/>
<path d="M2539 3253 c-1 -5 -1 -12 0 -16 1 -5 -9 -5 -21 -2 -13 4 -26 8 -29 9
-6 1 -131 -56 -139 -64 -10 -11 -76 -39 -103 -45 -15 -3 -25 -9 -22 -14 7 -12
79 5 148 36 47 21 63 24 77 15 24 -14 32 -5 18 22 -9 17 -8 19 3 9 18 -18 59
-16 59 2 0 8 4 15 9 15 6 0 9 9 8 20 -1 20 -6 27 -8 13z"/>
<path d="M2160 3126 c0 -9 40 -13 46 -5 3 5 -6 9 -20 9 -14 0 -26 -2 -26 -4z"/>
<path d="M543 2960 c0 -25 2 -35 4 -22 2 12 2 32 0 45 -2 12 -4 2 -4 -23z"/>
<path d="M2671 2805 c-25 -53 -28 -113 -6 -121 8 -4 15 -11 15 -18 0 -6 15
-28 33 -49 24 -29 42 -39 72 -43 78 -11 93 -21 91 -62 -2 -47 -13 -64 -36 -57
-13 4 -22 -5 -38 -37 -12 -24 -21 -35 -22 -25 0 27 -14 20 -27 -13 -6 -17 -17
-29 -24 -28 -8 2 -17 -13 -22 -37 -17 -73 -27 -84 -22 -23 l4 58 -40 -41 c-21
-22 -44 -37 -50 -33 -17 10 -67 -52 -75 -92 -8 -42 -7 -43 37 -48 19 -3 35 -6
37 -7 1 -1 5 -2 10 -3 4 -1 12 -4 17 -7 21 -13 64 -19 70 -10 8 13 61 -3 106
-33 25 -17 39 -21 42 -13 2 8 8 7 20 -5 19 -19 85 -43 94 -34 4 3 -3 15 -15
26 -27 25 -31 75 -7 75 6 0 11 5 12 10 2 13 32 23 71 24 18 1 43 6 54 12 17 9
24 8 34 -5 10 -14 12 -15 17 -1 4 9 13 12 23 8 13 -5 15 -3 9 8 -8 12 -6 12 9
0 15 -12 17 -12 14 0 -2 10 7 14 32 14 23 0 34 4 33 13 -2 6 2 12 7 12 6 0 10
-4 10 -9 0 -4 16 -3 35 3 19 6 35 14 35 18 0 5 7 8 15 8 8 0 15 5 15 10 0 6 6
10 13 10 8 0 35 11 60 24 26 13 47 21 46 17 0 -3 -24 -24 -52 -47 -32 -25 -53
-49 -55 -65 -2 -13 -9 -30 -15 -37 -6 -8 9 -4 34 8 25 13 63 46 89 77 73 89
100 112 144 121 30 6 44 15 54 35 7 15 17 27 23 27 22 0 8 57 -21 85 -25 24
-39 29 -89 31 -52 2 -60 0 -64 -17 -5 -17 -9 -19 -26 -9 -26 13 -27 1 -5 -42
12 -24 18 -28 25 -17 7 11 13 9 28 -10 19 -25 17 -60 -3 -63 -6 -1 -74 -2
-151 -2 l-140 -1 -63 -42 c-34 -23 -71 -45 -82 -48 -11 -4 -20 -11 -20 -16 0
-16 -27 -10 -34 7 -12 32 -96 12 -217 -50 -60 -31 -122 -56 -137 -56 -26 0
-25 1 21 47 26 25 47 50 47 56 0 5 9 7 20 4 13 -3 20 0 20 10 0 9 6 13 15 9 9
-3 15 0 15 9 0 18 16 20 23 3 3 -8 6 -5 6 6 1 16 3 16 17 5 13 -10 17 -10 24
0 4 8 13 10 19 7 6 -4 11 0 11 8 0 9 4 16 8 16 5 0 19 21 31 46 13 25 25 43
28 41 2 -3 0 -14 -6 -25 -14 -26 -14 -52 -1 -52 6 0 10 7 10 16 0 22 23 13 35
-14 18 -39 73 -35 98 8 10 15 14 35 11 44 -3 9 -2 16 3 16 4 0 7 19 5 43 -3
29 1 47 11 56 13 10 16 7 22 -21 9 -39 41 -88 58 -88 7 0 20 7 31 15 17 13 17
18 6 45 -7 18 -18 37 -24 43 -26 27 -45 67 -40 81 4 11 -4 16 -33 18 l-38 4
65 30 c103 49 144 107 120 166 -8 21 -9 21 -9 -7 -1 -17 -8 -40 -16 -52 -18
-26 -88 -49 -94 -31 -6 19 -71 -65 -71 -92 0 -47 -23 -66 -81 -68 -28 0 -57
-6 -62 -11 -17 -17 -44 -13 -59 7 -7 11 -32 31 -56 46 -33 21 -47 24 -62 16
-33 -18 -79 -12 -105 14 -32 32 -40 67 -26 121 23 91 7 114 -28 40z m569 -265
c0 -5 -2 -10 -4 -10 -3 0 -8 5 -11 10 -3 6 -1 10 4 10 6 0 11 -4 11 -10z
m-134 -128 c-3 -2 -13 1 -23 7 -11 6 -13 11 -5 11 7 0 10 6 7 13 -4 6 1 3 9
-7 9 -11 14 -21 12 -24z"/>
<path d="M543 2640 c0 -25 2 -35 4 -22 2 12 2 32 0 45 -2 12 -4 2 -4 -23z"/>
<path d="M1810 2614 c0 -51 26 -100 61 -114 41 -18 45 -8 10 28 -17 16 -31 28
-33 27 -2 -2 -4 12 -4 30 -3 68 -34 95 -34 29z"/>
<path d="M3260 2561 c0 -6 8 -19 18 -29 10 -10 22 -27 26 -37 6 -16 9 -17 16
-5 8 12 12 8 22 -17 16 -42 32 -43 22 -1 -6 30 -5 31 10 19 9 -8 18 -12 21 -9
11 11 -9 46 -39 66 -38 26 -50 28 -42 7 7 -19 1 -19 -29 1 -15 10 -25 12 -25
5z"/>
<path d="M3986 2458 c-3 -17 -4 -34 -1 -37 9 -8 25 21 25 47 0 33 -17 27 -24
-10z"/>
<path d="M3401 2454 c0 -11 3 -14 6 -6 3 7 2 16 -1 19 -3 4 -6 -2 -5 -13z"/>
<path d="M3966 2377 c3 -10 9 -15 12 -12 3 3 0 11 -7 18 -10 9 -11 8 -5 -6z"/>
<path d="M543 2325 c0 -22 2 -30 4 -17 2 12 2 30 0 40 -3 9 -5 -1 -4 -23z"/>
<path d="M461 2274 c0 -11 3 -14 6 -6 3 7 2 16 -1 19 -3 4 -6 -2 -5 -13z"/>
<path d="M480 2257 c0 -34 29 -89 30 -56 0 9 10 29 22 44 18 23 22 25 30 11
10 -18 28 -12 28 10 0 17 -46 19 -53 2 -3 -8 -6 -6 -6 5 -1 11 -9 17 -26 17
-22 0 -25 -4 -25 -33z m21 -18 c-9 -22 -10 -22 -10 -3 -1 11 2 24 6 27 12 12
14 0 4 -24z"/>
<path d="M615 2230 c-3 -5 -1 -10 4 -10 6 0 11 5 11 10 0 6 -2 10 -4 10 -3 0
-8 -4 -11 -10z"/>
<path d="M560 2210 c0 -5 5 -10 10 -10 6 0 10 5 10 10 0 6 -4 10 -10 10 -5 0
-10 -4 -10 -10z"/>
<path d="M522 2181 c0 -21 7 -41 20 -55 l20 -21 -16 33 c-9 18 -12 32 -6 32 5
0 10 7 10 16 0 8 -4 13 -9 10 -5 -4 -11 0 -14 6 -2 7 -4 -2 -5 -21z"/>
<path d="M585 2190 c-3 -6 -3 -20 0 -31 6 -17 9 -19 16 -8 12 19 11 49 0 49
-6 0 -13 -5 -16 -10z"/>
<path d="M621 2104 c0 -11 3 -14 6 -6 3 7 2 16 -1 19 -3 4 -6 -2 -5 -13z"/>
<path d="M3300 2078 c-88 -44 -227 -81 -287 -76 -28 2 -39 0 -32 -7 6 -5 52
-9 103 -9 87 1 99 4 177 41 73 35 131 77 118 86 -2 1 -38 -14 -79 -35z"/>
<path d="M560 2098 c0 -4 11 -23 24 -42 l24 -36 6 26 c4 15 5 29 1 32 -3 3 -5
-3 -5 -14 0 -16 -4 -14 -25 11 -13 17 -24 27 -25 23z"/>
<path d="M3388 2049 c-26 -14 -215 -79 -232 -79 -9 0 -37 -7 -63 -16 -26 -9
-58 -16 -70 -16 -13 0 -23 -4 -23 -9 0 -5 3 -9 8 -9 4 0 12 -10 17 -22 14 -31
47 -36 148 -21 93 14 177 52 177 79 0 8 11 19 25 26 14 6 27 23 30 40 8 35 5
40 -17 27z"/>
<path d="M660 2020 c0 -11 4 -20 9 -20 5 0 7 9 4 20 -3 11 -7 20 -9 20 -2 0
-4 -9 -4 -20z"/>
<path d="M3406 1231 c-3 -5 0 -11 7 -14 8 -3 14 1 14 9 0 16 -13 19 -21 5z"/>
</g>
</svg>
