<!-- Generated by IcoMoon.io -->
<svg version="1.1" xmlns="http://www.w3.org/2000/svg" width="512" height="512" viewBox="0 0 512 512">
<g id="icomoon-ignore">
</g>
<path d="M372.836 54.584c-36.776 0-60.377-6.584-98.25-6.584-122.397 0-179.478 69.706-179.478 140.511 0 41.714 19.76 55.435 58.73 55.435-2.746-6.038-7.684-12.626-7.684-42.264 0-82.879 31.284-107.030 71.353-108.677 0 0-32.874 322.308-128.285 360.97v10.023h128.617l43.885-208h80.375l17.904-52h-87.306l21.103-100.014c24.151 4.938 47.752 9.878 68.060 9.878 25.248 0 48.3-7.684 60.925-65.864-15.367 4.94-31.834 6.584-49.944 6.584z"></path>
</svg>
