<!-- Generated by IcoMoon.io -->
<svg version="1.1" xmlns="http://www.w3.org/2000/svg" width="512" height="512" viewBox="0 0 512 512">
<g id="icomoon-ignore">
</g>
<path d="M363.848 70.078c-33.947 0-55.732-6.078-90.693-6.078-112.982 0-165.672 64.344-165.672 129.702 0 38.505 18.24 51.171 54.212 51.171-2.535-5.574-7.093-11.655-7.093-39.013 0-76.503 28.877-98.797 65.864-100.317 0 0-30.345 297.515-118.417 333.203v9.252h118.723l40.509-192h74.192l16.527-48h-80.59l19.479-92.321c22.293 4.558 44.079 9.118 62.824 9.118 23.306 0 44.585-7.093 56.238-60.797-14.185 4.56-29.385 6.078-46.102 6.078z"></path>
</svg>
