<!-- Generated by IcoMoon.io -->
<svg version="1.1" xmlns="http://www.w3.org/2000/svg" width="512" height="512" viewBox="0 0 512 512">
<g id="icomoon-ignore">
</g>
<path d="M457.782 77.045c-6.030-8.202-15.602-13.045-25.782-13.045h-304c-17.673 0-32 14.327-32 32v384c0 12.942 7.796 24.611 19.754 29.564 3.959 1.64 8.117 2.437 12.239 2.437 8.328 0 16.513-3.252 22.634-9.374l118.628-118.627h82.745c13.996 0 26.368-9.096 30.543-22.455l80-256c3.037-9.716 1.269-20.298-4.761-28.5zM368.474 192h-112.474c-17.673 0-32 14.327-32 32s14.327 32 32 32h92.474l-20 64h-72.474c-8.487 0-16.626 3.371-22.627 9.373l-73.373 73.372v-274.745h228.474l-20 64z"></path>
</svg>
